<svg xmlns:xlink="http://www.w3.org/1999/xlink" width="24" height="24" viewBox="0 0 24 24" fill="none" xmlns="http://www.w3.org/2000/svg" class="ms-ds-0 me-ds-3 mt-ds-0 mb-ds-0 w-ds-icon-sm h-ds-icon-sm" name="Support"><path d="M18.375 10.05C18.375 10.0224 18.3974 10 18.425 10H19.875C20.7034 10 21.375 10.6716 21.375 11.5V15.0625C21.375 15.8909 20.7034 16.5625 19.875 16.5625H18.575C18.4645 16.5625 18.375 16.473 18.375 16.3625V10.05Z" stroke-width="2px" class="fill-transparent stroke-current" stroke="color(srgb 0.443137 0.196078 0.960784)" fill-opacity="0" fill="#000000"></path><path d="M2.9375 11.5C2.9375 10.6716 3.60907 10 4.4375 10H5.7375C5.84796 10 5.9375 10.0895 5.9375 10.2V16.5125C5.9375 16.5401 5.91511 16.5625 5.8875 16.5625H4.4375C3.60907 16.5625 2.9375 15.8909 2.9375 15.0625V11.5Z" stroke-width="2px" class="fill-transparent stroke-current" stroke="color(srgb 0.443137 0.196078 0.960784)" fill-opacity="0" fill="#000000"></path><path d="M19.3125 9.25C19.3125 4.07233 15.25 3 12.125 3C9 3 5 4.07233 5 9.25" stroke-width="2px" class="fill-transparent stroke-current" stroke="color(srgb 0.443137 0.196078 0.960784)" fill-opacity="0" fill="#000000"></path><path d="M19.5312 17.0312C19.5312 19.5938 17.375 21 14.9375 21H13.1156C12.4375 21 11.7812 20.2031 11.8594 19" stroke-width="2px" stroke-linecap="round" class="fill-transparent stroke-current" stroke="color(srgb 0.443137 0.196078 0.960784)" fill-opacity="0" fill="#000000"></path></svg>