<svg xmlns:xlink="http://www.w3.org/1999/xlink" width="24" height="24" viewBox="0 0 24 24" fill="none" xmlns="http://www.w3.org/2000/svg" class="ms-ds-0 me-ds-0 mt-ds-0 mb-ds-0 w-ds-icon-xs h-ds-icon-xs" name="Fire"><path d="M12 21.2507C16.2802 21.2507 19.75 17.5007 19.75 13.0007C19.75 7.83371 15.1368 4.17188 13.2786 2.90652C12.853 2.61665 12.2906 2.74208 11.9942 3.16325L9.58196 6.59151C9.22547 7.09816 8.49654 7.15986 8.05707 6.72322C7.66693 6.3356 7.03099 6.33141 6.68083 6.75551C5.06028 8.71828 4.25 11.1621 4.25 13.0007C4.25 17.5007 7.71979 21.2507 12 21.2507ZM12 21.2507C13.6569 21.2507 15 19.7176 15 17.8263C15 15.7432 13.3369 14.2255 12.4872 13.5861C12.1953 13.3664 11.8047 13.3664 11.5128 13.5861C10.6631 14.2255 9 15.7432 9 17.8263C9 19.7176 10.3431 21.2507 12 21.2507Z" stroke-width="2px" stroke-linejoin="round" class="fill-transparent stroke-current" stroke="color(srgb 0.168627 0.0784314 0.388235)" fill-opacity="0" fill="#000000"></path></svg>