<svg xmlns:xlink="http://www.w3.org/1999/xlink" width="24" height="24" viewBox="0 0 24 24" fill="none" xmlns="http://www.w3.org/2000/svg" class="ms-ds-0 me-ds-3 mt-ds-0 mb-ds-0 w-ds-icon-sm h-ds-icon-sm" name="Globe"><path d="M21 12C21 16.9706 16.9706 21 12 21M21 12C21 7.02944 16.9706 3 12 3M21 12H3M12 21C7.02944 21 3 16.9706 3 12M12 21C9.79086 21 8 16.9706 8 12C8 7.02944 9.79086 3 12 3M12 21C14.2091 21 16 16.9706 16 12C16 7.02944 14.2091 3 12 3M3 12C3 7.02944 7.02944 3 12 3" stroke-width="2px" stroke-linecap="square" class="fill-transparent stroke-ds-icon-dimmed" stroke="color(srgb 0.580392 0.592157 0.662745)" fill-opacity="0" fill="#000000"></path></svg>