<svg xmlns:xlink="http://www.w3.org/1999/xlink" width="24" height="24" viewBox="0 0 24 24" fill="none" xmlns="http://www.w3.org/2000/svg" class="ms-ds-0 me-ds-0 mt-ds-0 mb-ds-0 w-ds-icon-xs h-ds-icon-xs" name="AssetPair"><path d="M16.6297 9.62499C16.6297 13.321 13.6335 16.3173 9.93742 16.3173C6.24137 16.3173 3.24512 13.321 3.24512 9.62499C3.24512 5.92893 6.24137 2.93268 9.93742 2.93268C13.6335 2.93268 16.6297 5.92893 16.6297 9.62499Z" stroke-width="2px" stroke-linecap="round" stroke-linejoin="round" class="fill-transparent stroke-current" stroke="color(srgb 0.431373 0.407843 0.509804)" fill-opacity="0" fill="#000000"></path><path d="M9.69629 17.002C10.3831 19.3426 12.5467 21.0517 15.1094 21.0517C18.2247 21.0517 20.75 18.5263 20.75 15.4111C20.75 13.1139 19.3768 11.1374 17.4064 10.2578" stroke-width="2px" stroke-linecap="square" stroke-linejoin="round" class="fill-transparent stroke-current" stroke="color(srgb 0.431373 0.407843 0.509804)" fill-opacity="0" fill="#000000"></path><path d="M13.229 15.5469V15.7913C13.229 16.6197 13.9006 17.2913 14.729 17.2913H15.4894C16.3178 17.2913 16.9894 16.6197 16.9894 15.7913V15.0309C16.9894 14.2025 16.3178 13.5309 15.4894 13.5309H15.2811" stroke-width="2px" class="fill-transparent stroke-current" stroke="color(srgb 0.431373 0.407843 0.509804)" fill-opacity="0" fill="#000000"></path><rect x="7.70679" y="7.39423" width="4.46154" height="4.46154" rx="1" stroke-width="2px" class="fill-transparent stroke-current" stroke="color(srgb 0.431373 0.407843 0.509804)" fill-opacity="0" fill="#000000"></rect></svg>